<?xml version="1.0" encoding="UTF-8" standalone="no"?>
<!DOCTYPE svg PUBLIC "-//W3C//DTD SVG 1.1//EN" "http://www.w3.org/Graphics/SVG/1.1/DTD/svg11.dtd">
<svg width="100%" height="100%" viewBox="0 0 444 500" version="1.1" xmlns="http://www.w3.org/2000/svg" xmlns:xlink="http://www.w3.org/1999/xlink" xml:space="preserve" xmlns:serif="http://www.serif.com/" style="fill-rule:evenodd;clip-rule:evenodd;stroke-linejoin:round;stroke-miterlimit:2;">
    <g transform="matrix(1,0,0,1,-28.7411,0)">
        <g>
            <g transform="matrix(0.976563,0,0,0.976563,0.67362,0)">
                <path d="M483.259,77.213L483.259,241.619C483.259,282.311 464.608,329.543 430.757,374.615C391.305,427.127 333.193,473.478 262.7,508.66L256,512L249.3,508.66C178.807,473.478 120.695,427.127 81.243,374.615C47.392,329.543 28.741,282.311 28.741,241.619L28.741,77.213L139.305,0L372.695,0L483.259,77.213Z" style="fill:rgb(10,56,113);fill-rule:nonzero;"/>
            </g>
            <g transform="matrix(0.976563,0,0,0.976563,0.67362,0)">
                <path d="M483.259,77.213L483.259,241.619C483.259,282.311 464.608,329.543 430.757,374.615C391.305,427.127 333.193,473.478 262.7,508.66L256,512L256,0L372.695,0L483.259,77.213Z" style="fill:rgb(10,56,113);fill-rule:nonzero;"/>
            </g>
            <g transform="matrix(0.976563,0,0,0.976563,0.67362,0)">
                <path d="M353.814,60.002L158.186,60.002L88.743,108.494L88.743,241.619C88.743,287.371 133.755,376.775 256,444.407C378.245,376.775 423.257,287.371 423.257,241.619L423.257,108.494L353.814,60.002Z" style="fill:rgb(203,204,204);fill-rule:nonzero;"/>
            </g>
            <g transform="matrix(0.976563,0,0,0.976563,0.67362,0)">
                <path d="M423.257,108.494L423.257,241.619C423.257,287.371 378.245,376.775 256,444.407L256,60.002L353.814,60.002L423.257,108.494Z" style="fill:rgb(203,204,204);fill-rule:nonzero;"/>
            </g>
            <g transform="matrix(0.976563,0,0,0.976563,0.67362,0)">
                <path d="M358.534,45.002L153.466,45.002L73.743,100.674L73.743,241.619C73.743,270.881 88.563,308.062 114.394,343.623C145.846,386.925 192.298,426.317 248.74,457.538L256,461.558L263.26,457.538C319.702,426.317 366.154,386.925 397.606,343.623C423.437,308.062 438.257,270.881 438.257,241.619L438.257,100.674L358.534,45.002ZM408.256,241.619C408.256,281.531 367.544,363.024 256,427.187C144.456,363.024 103.744,281.531 103.744,241.619L103.744,116.315L162.906,75.003L349.094,75.003L408.256,116.315L408.256,241.619Z" style="fill:white;fill-rule:nonzero;"/>
            </g>
            <g transform="matrix(0.976563,0,0,0.976563,0.67362,0)">
                <path d="M438.257,100.674L438.257,241.619C438.257,270.881 423.437,308.062 397.606,343.623C366.154,386.925 319.702,426.317 263.26,457.538L256,461.558L256,427.187C367.544,363.024 408.256,281.531 408.256,241.619L408.256,116.315L349.094,75.003L256,75.003L256,45.002L358.534,45.002L438.257,100.674Z" style="fill:white;fill-rule:nonzero;"/>
            </g>
        </g>
        <g transform="matrix(3.72848,0,0,3.72848,166.596,-4.48802)">
            <path d="M22.6,26C30.3,26 36.1,27.5 39.7,30.6C43.3,33.7 45.1,37.5 45.1,42.1L45.1,81.1C45.1,82.7 44.8,84.4 44.2,86.3C43.6,88.2 42.5,90 40.9,91.5C39.2,93.1 36.9,94.4 34,95.5C31.1,96.6 27.3,97.1 22.6,97.1C17.9,97.1 14.1,96.5 11.2,95.5C8.3,94.5 6,93.1 4.3,91.5C2.6,89.9 1.5,88.2 1,86.3C0.4,84.5 0,82.7 0,81.1L0,74.9C0,71.6 0.9,68.5 2.6,65.7C4.4,63 6.8,61 9.9,59.9C11.5,59.3 13.2,58.8 15.3,58.1C17.3,57.4 19.3,56.8 21.2,56C23.1,55.3 24.7,54.8 26.2,54.3C27.6,53.7 28.5,53.5 28.9,53.3C29.2,53.1 29.7,52.9 30.2,52.6C30.8,52.3 31.3,51.8 31.9,51.3C32.5,50.6 32.9,50 33.2,49.2C33.6,48.4 33.8,47.5 33.8,46.4L33.8,43.9C33.8,43 33.6,42.2 33.2,41.2C32.9,40.2 32.2,39.5 31.4,38.6C30.6,37.8 29.3,37.2 27.9,36.7C26.5,36.2 24.7,36 22.4,36C18,36 15.1,36.9 13.4,38.7C12.1,40.3 11.2,42.2 11.1,44.4C11.1,44.9 10.7,45.2 10.2,45.2L0.9,45.2C0.4,45.2 0,44.8 0,44.3L0,42C0,39.8 0.4,37.7 1.2,35.8C2,33.7 3.4,32 5.3,30.5C7.1,29.1 9.5,27.8 12.4,27.1C15.2,26.5 18.6,26 22.6,26ZM34,61.1C33.8,62 33.3,62.6 32.7,63.1C32,63.6 31.4,63.8 30.7,64.1C29.4,64.6 27.9,65.1 26.4,65.6C24.9,66.2 23.4,66.7 22.1,67.1C20.5,67.7 18.9,68.2 17.6,68.7C16.5,69.2 15.5,69.8 14.5,70.5C13.7,71.2 13,72.1 12.3,73.2C11.6,74.4 11.3,75.7 11.3,77.4C11.3,80.7 12.1,83.2 13.7,84.9C15.3,86.5 18.3,87.4 22.6,87.4C27,87.4 30,86.5 31.7,84.8C33.3,83.1 34.1,80.6 34.1,77.5L34,61.1Z" style="fill:rgb(10,56,113);"/>
        </g>
    </g>
</svg>
