<?xml version="1.0" encoding="UTF-8" standalone="no"?>
<!DOCTYPE svg PUBLIC "-//W3C//DTD SVG 1.1//EN" "http://www.w3.org/Graphics/SVG/1.1/DTD/svg11.dtd">
<svg width="100%" height="100%" viewBox="0 0 600 600" version="1.1" xmlns="http://www.w3.org/2000/svg" xmlns:xlink="http://www.w3.org/1999/xlink" xml:space="preserve" xmlns:serif="http://www.serif.com/" style="fill-rule:evenodd;clip-rule:evenodd;">
    <g id="svga-group-wrapper" transform="matrix(3,0,0,3,0,0)">
        <g id="svga-group-backs-single">
            <rect id="SvgjsPath4784" x="-25" y="-25" width="250" height="250" style="fill:rgb(0,168,198);fill-rule:nonzero;"/>
        </g>
        <g id="svga-group-subwrapper">
            <g id="svga-group-hair-back">
                <rect id="SvgjsPath4772" x="99.5" y="99.5" width="1" height="1" style="fill:rgb(59,49,40);fill-rule:nonzero;"/>
            </g>
            <g id="svga-group-humanbody-single">
                <path id="SvgjsPath2893" d="M195.417,199.778C193.221,195.032 187.222,187.999 180.557,186.056C172.318,183.653 153.72,180.748 146.824,179.133C141.296,177.837 130.162,167.839 126.26,164.483C125.56,163.883 124.987,162.644 124.973,161.723C124.834,150.859 129.168,121.999 129.168,121.999L70.833,121.999C70.833,121.999 75.167,150.858 75.026,161.723C75.015,162.644 74.439,163.883 73.741,164.483C69.839,167.839 58.705,177.837 53.177,179.133C46.28,180.748 27.682,183.752 19.444,186.155C12.777,188.097 6.78,195.031 4.584,199.777C0.876,207.785 0,222.277 0,234.777L200,234.777C200,222.278 199.123,207.786 195.417,199.778Z" style="fill:rgb(240,199,177);fill-rule:nonzero;"/>
                <path id="SvgjsPath2894" d="M159.156,184.058C183.498,187.6 193.742,192.766 196.95,234.779L200,234.779C200,222.279 199.123,207.787 195.417,199.779C193.221,195.033 187.222,188 180.557,186.057C172.318,183.654 153.72,180.749 146.824,179.134C141.296,177.838 128.582,167.065 125.181,162.784C128.541,167.488 137.972,178.389 146.235,181.244C150.188,182.61 153.48,183.232 159.156,184.058ZM53.766,181.244C62.029,178.39 71.459,167.488 74.82,162.784C71.42,167.064 58.706,177.838 53.177,179.134C46.281,180.749 27.683,183.753 19.444,186.156C12.779,188.098 6.78,195.032 4.584,199.778C0.878,207.786 0.001,222.278 0.001,234.778L3.051,234.778C6.239,193.034 16.526,187.595 40.845,184.057C46.52,183.232 49.813,182.61 53.766,181.244Z" style="fill:rgb(255,228,214);fill-rule:nonzero;"/>
                <path id="SvgjsPath2895" d="M95.646,197.62C95.646,197.62 90.572,196.011 88.563,195.241C78.114,191.232 44.168,188.634 44.168,188.634C44.168,188.634 79.922,190.053 87.812,191.413C87.354,186.646 84.795,171.409 84.795,171.409C84.795,171.409 89.944,188.224 91.204,192.466C91.878,194.734 95.646,197.62 95.646,197.62ZM106.445,196.278C106.356,196.351 106.254,196.446 106.143,196.546C106.256,196.461 106.358,196.372 106.445,196.278ZM95.646,197.62C95.646,197.62 98.539,200.612 99.993,200.65C101.903,200.701 104.821,197.751 106.144,196.546C104.879,197.503 101.985,197.937 100.834,197.982C99.504,198.033 95.646,197.62 95.646,197.62ZM116.664,190.101C115.119,190.349 112.278,190.89 112.278,190.89L114.565,176C113.919,179.071 110.091,192.211 106.445,196.278C108.355,194.662 112.603,193.887 114.769,193.574C125.005,192.09 125.001,192.091 155.831,188.634C155.831,188.634 126.76,188.479 116.664,190.101Z" style="fill:rgb(225,172,143);fill-rule:nonzero;"/>
                <path id="SvgjsPath2896" d="M195.417,199.778C193.221,195.032 187.222,187.999 180.557,186.056C172.318,183.653 153.72,180.748 146.824,179.133C141.296,177.837 130.162,167.839 126.26,164.483C125.56,163.883 124.987,162.644 124.973,161.723C124.834,150.859 129.168,121.999 129.168,121.999L70.833,121.999C70.833,121.999 75.167,150.858 75.026,161.723C75.015,162.644 74.439,163.883 73.741,164.483C69.839,167.839 58.705,177.837 53.177,179.133C46.28,180.748 27.682,183.752 19.444,186.155C12.777,188.097 6.78,195.031 4.584,199.777C0.876,207.785 0,222.277 0,234.777L200,234.777C200,222.278 199.123,207.786 195.417,199.778Z" style="fill:none;fill-rule:nonzero;stroke:rgb(194,123,85);stroke-width:1.5px;"/>
            </g>
            <g id="svga-group-chinshadow-single">
                <path id="SvgjsPath4374" d="M74.853,164.349C82.065,168.968 90.717,171.867 100.003,171.867C109.286,171.867 117.936,168.97 125.146,164.353C124.605,163.588 124.235,162.586 124.222,161.734C124.131,154.623 125.905,140.118 127.178,130.699C111.581,127.553 88.418,127.553 72.823,130.699C74.096,140.118 75.87,154.623 75.778,161.733C75.767,162.567 75.392,163.58 74.853,164.349Z" style="fill:url(#_Linear1);fill-rule:nonzero;"/>
            </g>
            <g id="svga-group-clothes-single">
                <path id="SvgjsPath4779" d="M204.771,234.683C179.698,234.436 140.528,234.672 108.714,234.79L112.478,200.56C112.867,191.684 116.785,189.369 118.89,184.015C127.413,162.343 124.015,168.778 126.876,150.88C136.568,152.214 144.119,171.897 151.214,174.495C151.201,174.923 150.883,176.899 150.458,179.392C187.119,186.985 200,178.735 204.771,234.683ZM93.475,200.708C92.416,197.571 87.995,192.961 85.924,189.957C82.358,184.772 79.395,179.261 75.043,166.361C75.036,166.214 74.341,154.953 73.195,150.156C67.43,152.869 68.466,157.3 59.596,167.674C57.737,169.838 54.053,170.503 50.337,172.678C50.146,174.774 50.116,176.598 50.187,178.325C40.89,179.733 14.815,185.357 5.326,192.671C0.927,202.832 -9.178,221.673 -7.57,235.593C20.664,235.288 63.622,234.998 99.811,234.79C99.811,234.79 101.112,214.886 92.951,200.482C93.133,200.552 93.31,200.625 93.475,200.708Z" style="fill:rgb(29,40,46);fill-rule:nonzero;"/>
                <path id="SvgjsPath4780" d="M50.767,179.432C30.861,185.124 17.897,189.268 8.738,194.524C4.563,202.318 -2.332,213.359 -6.107,234.791C-6.159,234.792 -7.075,234.698 -7.128,234.698C-7.035,217.627 0.665,203.895 5.304,192.854C15.51,184.597 37.592,180.514 50.303,178.473C50.34,178.543 50.731,179.366 50.767,179.432ZM150.498,179.568C163.209,181.609 181.994,183.735 192.619,190.485C199.994,201.61 204.047,217.321 204.14,234.392C204.088,234.392 203.172,234.486 203.119,234.485C199.345,213.053 194.794,201.279 190.619,193.485C181.46,188.229 169.94,186.219 150.034,180.527C150.07,180.462 150.461,179.639 150.498,179.568Z" style="fill:rgb(45,55,61);fill-rule:nonzero;"/>
                <path id="SvgjsPath4781" d="M119.635,201.16C117.915,200.184 114.648,200 112.633,201.756C113.229,200 115.425,198.552 118.308,198.232C127.324,200.001 138.214,212.098 149.014,216.628C138.306,214.798 127.818,205.804 119.635,201.16ZM93.667,202.167L92.479,200C90.422,200.038 85.526,200.482 83.465,202.309C74.173,210.542 59.346,214.661 52.747,218.964C86.703,209.902 80.203,202.736 93.667,202.167Z" style="fill:rgb(7,12,15);fill-rule:nonzero;"/>
                <path id="SvgjsPath4782" d="M115.619,198.985C114.126,199.411 112.558,200.538 112.477,200.559C112.866,191.683 116.784,189.368 118.889,184.014C127.412,162.342 124.014,168.777 126.875,150.879C128.816,151.145 130.673,152.294 132.457,153.964C131.23,163.464 128.617,170.964 124.811,179.531C129.272,177.009 134.109,173.92 138.483,171.505C129.391,179.69 118.516,187.081 115.619,198.985ZM93.475,200.708C92.416,197.571 87.995,192.961 85.924,189.957C82.358,184.772 79.395,179.261 75.043,166.361C75.036,166.214 74.341,154.953 73.195,150.156C69.549,151.87 69.855,153.111 67.424,157.266C69.382,167.393 73.339,173.831 78.951,182.251C74.167,179.097 67.489,173.706 60.88,170.404C72.014,178.752 82.019,189.144 89.533,200.208C91.972,199.465 92.066,200.003 93.475,200.708Z" style="fill:rgb(16,26,31);fill-rule:nonzero;"/>
                <path id="SvgjsPath4783" d="M193.414,189.487C184.863,184.427 170.065,181.025 150.873,178.708C151.136,176.227 151.324,174.448 151.327,174.421C144.219,171.961 136.319,151.948 126.455,150.761C119.152,195.648 114.733,180.316 111.09,200.001C110.428,203.58 108.237,232.53 108.125,233.918C105.551,233.921 102.976,233.924 100.4,233.928C100.947,215.966 94.08,201.844 93.66,200.934C92.783,197.816 88.111,192.939 86.014,189.896C80.577,181.989 78.104,174.806 75.152,166.356C75.152,166.356 74.67,154.721 73.49,150C67.549,152.726 68.434,156.065 59.511,166.499C56.988,169.436 53.563,170.669 50.225,172.669C50.052,174.568 50.026,176.374 50.09,178.121C15.813,182.47 8.35,190.078 4.201,191.903C1.261,201.426 -8.132,215.237 -8.22,235.745C21.409,235.745 25.844,236.146 115.262,235.826C129.131,235.767 142.995,235.692 156.866,235.603C177.343,235.483 205.535,236.07 205.535,236.07C205.536,214.739 200.869,201.902 193.414,189.487ZM117.634,186.921C124.619,173.235 124.619,169.985 127.314,151.298C135.768,154.12 143.505,172.25 150.434,174.485C145.495,200.001 148.171,209.864 148.524,215.839C145.949,214.453 143.965,213.188 141.463,211.691C133.742,207.062 128.397,201.452 120.205,198.108C117.986,197.172 114.797,198.567 112.845,200.002C113.922,190.583 115.012,192.058 117.634,186.921ZM119.286,198.722C119.288,198.707 119.291,198.695 119.293,198.681C119.565,198.637 119.409,198.677 119.286,198.722ZM112.756,202.773C113.145,200.795 116.13,199.658 117.619,199.152C115.693,207.71 113.173,219.232 113.124,233.914C111.875,233.915 110.625,233.916 109.375,233.917C109.483,232.632 111.173,210.838 112.756,202.773ZM98.931,233.931C98.141,233.932 97.352,233.934 96.562,233.935C97.673,221.134 90.957,210.125 87.869,200.897C88.675,200.815 91.079,200.161 91.744,200.275C93.387,201.514 100.999,221.875 98.931,233.931ZM60.03,167.448C69.576,156.47 67.587,153.782 72.873,150.552C73.204,153.702 73.468,156.875 73.634,160.058C74.197,171.321 72.695,163.628 77.126,175.235C83.639,192.293 89.462,193.753 92.444,199.602C81.869,198.861 80.326,206.794 70.813,209.965C62.058,213.412 64.459,211.809 52.44,218.701C55.798,194.882 50.7,183.865 50.7,173.13C54.159,171.341 57.48,170.367 60.03,167.448ZM-6.797,234.569C-5.13,213.902 2.907,200.547 6.203,193.236C10.848,190.25 26.229,182.311 50.124,178.842C50.46,185.44 52.049,191.211 52.177,197.772C52.415,204.048 52.39,211.852 51.924,219.504C56.374,217.462 60.649,215.027 65.604,213.246C79.409,208.24 77.038,207.135 83.647,202.572C85.23,201.468 84.991,201.454 86.369,201.109C88.934,209.096 97.031,220.006 95.176,233.936C59.931,234.008 24.849,234.226 -6.797,234.569ZM114.609,233.914C114.292,221.46 117.253,210.909 119.273,198.792C124.128,198.856 137.593,212.21 149.419,217.219C149.69,213.01 149.244,204.243 149.244,194.486C149.24,194.196 150.155,185.492 150.773,179.644C162.05,182.883 180.344,182.914 192.614,191.626C197.536,201.069 203.465,211.674 203.869,234.236C175.918,234.002 145.432,233.899 114.609,233.914Z" style="fill-rule:nonzero;"/>
            </g>
            <g id="svga-group-head">
                <g id="svga-group-ears-left">
                    <path id="SvgjsPath4464" d="M47.001,83.231C45.625,80.778 41.363,74.751 37.021,76.228C34.272,77.163 33.728,80.221 33.286,82.921C32.698,86.512 33.757,93.615 34.675,96.181C35.556,98.648 38.208,103.411 39.939,105.226C42.069,107.451 44.714,114.55 45.133,115.287C45.793,116.449 46.669,118.198 49.255,117.979C52.108,117.735 53.839,116.129 55.111,115.858C58.253,115.192 50.582,89.616 47.001,83.231Z" style="fill:rgb(240,199,177);fill-rule:nonzero;stroke:rgb(194,123,85);stroke-width:1.5px;"/>
                    <path id="SvgjsPath4465" d="M44.197,98.104C44.065,97.523 44.204,96.544 44.339,95.6C44.463,94.739 44.579,93.925 44.508,93.349C44.241,91.195 42.735,87.1 41.751,84.882C40.619,82.328 38.788,79.112 36.489,78.283C35.539,77.94 34.914,78.35 34.551,78.767C34.285,79.072 34.226,79.432 34.313,79.474C34.399,79.516 34.598,79.22 34.885,78.939C35.12,78.71 35.464,78.513 35.936,78.554C35.746,79.627 34.769,85.437 35.192,89.399C35.525,92.514 36.785,94.841 36.982,95.19C37.011,95.557 37.059,95.916 37.13,96.265C38.059,100.812 42.101,105.982 43.508,107.674C43.767,107.987 44.039,108.171 44.106,108.097C44.172,108.021 44.012,107.71 43.753,107.397C42.365,105.718 38.362,100.566 37.464,96.179C36.512,91.523 39.782,84.623 40.512,83.162C40.883,83.847 41.199,84.506 41.442,85.055C41.632,85.486 41.844,85.991 42.061,86.534C41.632,87.296 38.627,92.854 39.723,97.301C40.129,98.942 41.958,101.056 43.17,101.634C43.837,101.954 44.089,102.431 44.379,102.983C44.715,103.623 45.097,104.348 46.207,104.875C46.432,104.983 46.636,105.026 46.817,105.026C47.13,105.026 47.368,104.891 47.542,104.733C47.56,105.013 47.559,105.373 47.551,105.703C47.539,106.134 47.593,106.486 47.688,106.494C47.782,106.502 47.884,106.162 47.895,105.734C47.911,105.208 47.908,104.557 47.823,104.246C47.575,103.329 46.815,102.293 46.01,101.198C45.221,100.116 44.403,99.003 44.197,98.104ZM36.95,94.073C34.773,86.934 37.606,80.773 38.094,79.793C38.944,80.615 39.694,81.712 40.304,82.788C39.86,83.646 37.041,89.271 36.95,94.073ZM46.341,104.515C45.337,104.04 45.002,103.4 44.675,102.782C44.382,102.223 44.077,101.646 43.306,101.277C43.138,101.196 42.954,101.074 42.764,100.934C40.278,94.671 43.036,91.933 43.727,91.372C43.938,92.138 44.096,92.84 44.166,93.403C44.229,93.92 44.114,94.742 43.999,95.537C43.857,96.522 43.713,97.541 43.862,98.201C44.088,99.183 44.931,100.332 45.746,101.443C46.469,102.429 47.212,103.446 47.467,104.275C47.359,104.439 47.017,104.836 46.341,104.515Z" style="fill:rgb(194,123,85);fill-rule:nonzero;"/>
                </g>
                <g id="svga-group-ears-right">
                    <path id="SvgjsPath4466" d="M152.736,83.231C154.113,80.778 158.375,74.751 162.716,76.228C165.466,77.163 166.009,80.221 166.452,82.921C167.04,86.512 165.981,93.615 165.063,96.181C164.182,98.648 161.53,103.411 159.797,105.226C157.668,107.451 155.022,114.55 154.604,115.287C153.946,116.449 153.069,118.198 150.483,117.979C147.629,117.735 145.899,116.129 144.626,115.858C141.484,115.192 149.156,89.616 152.736,83.231Z" style="fill:rgb(240,199,177);fill-rule:nonzero;stroke:rgb(194,123,85);stroke-width:1.5px;"/>
                    <path id="SvgjsPath4467" d="M153.727,101.196C152.922,102.292 152.163,103.327 151.914,104.244C151.828,104.555 151.826,105.206 151.842,105.732C151.854,106.16 151.955,106.5 152.049,106.492C152.143,106.484 152.197,106.132 152.186,105.701C152.178,105.37 152.178,105.011 152.196,104.731C152.37,104.889 152.608,105.024 152.921,105.024C153.103,105.024 153.306,104.981 153.53,104.873C154.639,104.347 155.022,103.621 155.358,102.981C155.647,102.429 155.901,101.953 156.567,101.632C157.78,101.054 159.608,98.94 160.014,97.299C161.11,92.852 158.106,87.294 157.676,86.532C157.893,85.988 158.106,85.483 158.295,85.053C158.539,84.504 158.854,83.845 159.225,83.16C159.955,84.62 163.225,91.521 162.274,96.177C161.378,100.564 157.374,105.716 155.985,107.395C155.727,107.708 155.567,108.019 155.633,108.095C155.699,108.169 155.971,107.986 156.231,107.672C157.637,105.98 161.68,100.81 162.61,96.263C162.68,95.913 162.727,95.555 162.756,95.188C162.953,94.839 164.215,92.512 164.547,89.397C164.969,85.436 163.992,79.625 163.803,78.552C164.276,78.51 164.617,78.708 164.854,78.937C165.141,79.218 165.34,79.514 165.426,79.472C165.512,79.43 165.453,79.07 165.188,78.765C164.825,78.348 164.2,77.938 163.25,78.281C160.951,79.111 159.119,82.326 157.988,84.88C157.004,87.098 155.498,91.193 155.23,93.347C155.158,93.923 155.275,94.737 155.4,95.598C155.535,96.543 155.673,97.522 155.541,98.102C155.336,99.003 154.518,100.116 153.727,101.196ZM159.434,82.787C160.045,81.712 160.795,80.614 161.645,79.792C162.133,80.772 164.965,86.933 162.79,94.072C162.697,89.271 159.879,83.646 159.434,82.787ZM152.27,104.275C152.524,103.446 153.268,102.429 153.991,101.443C154.807,100.332 155.649,99.183 155.876,98.201C156.024,97.541 155.88,96.522 155.739,95.537C155.624,94.742 155.509,93.92 155.573,93.403C155.641,92.84 155.8,92.137 156.011,91.372C156.702,91.933 159.46,94.671 156.976,100.934C156.785,101.074 156.601,101.197 156.433,101.277C155.662,101.646 155.359,102.223 155.064,102.782C154.738,103.4 154.402,104.04 153.398,104.515C152.721,104.836 152.379,104.439 152.27,104.275Z" style="fill:rgb(194,123,85);fill-rule:nonzero;"/>
                </g>
                <g id="svga-group-faceshape-wrap">
                    <g id="svga-group-faceshape-single">
                        <path id="SvgjsPath4371" d="M100.002,0.867C66.381,0.813 39.186,28.343 39.134,62.366C39.126,67.769 39.803,73.01 41.087,78.007L41.091,78.007C41.102,78.061 49.936,113.754 56.466,132.088C62.044,147.75 79.487,161.867 100.002,161.867C120.516,161.867 137.96,147.75 143.539,132.088C150.068,113.754 158.901,78.061 158.913,78.007L158.918,78.007C160.201,73.01 160.879,67.77 160.87,62.366C160.819,28.343 133.623,0.813 100.002,0.867Z" style="fill:rgb(240,199,177);fill-rule:nonzero;"/>
                        <path id="SvgjsPath4372" d="M146.769,22.992C154.218,33.309 157.65,46.17 157.671,60.129C157.681,66.589 155.782,75.77 155.782,75.77C155.77,75.824 147.26,111.517 140.966,129.851C135.59,145.512 119.775,159.63 100.003,159.63C80.23,159.63 64.418,145.512 59.042,129.851C52.746,111.517 44.233,75.824 44.222,75.77C44.222,75.77 42.327,65.616 42.336,60.129C42.357,46.173 45.784,33.316 53.231,23.001C44.45,33.664 39.159,47.383 39.136,62.366C39.128,67.769 39.805,73.01 41.089,78.007L41.093,78.007C41.104,78.061 49.938,113.754 56.468,132.088C62.046,147.75 79.489,161.867 100.004,161.867C120.518,161.867 137.962,147.75 143.541,132.088C150.07,113.754 158.903,78.061 158.915,78.007L158.92,78.007C160.203,73.01 160.881,67.77 160.872,62.366C160.848,47.379 155.554,33.656 146.769,22.992Z" style="fill:rgb(232,185,160);fill-rule:nonzero;"/>
                        <path id="SvgjsPath4373" d="M100.002,0.867C66.381,0.813 39.186,28.343 39.134,62.366C39.126,67.769 39.803,73.01 41.087,78.007L41.091,78.007C41.102,78.061 49.936,113.754 56.466,132.088C62.044,147.75 79.487,161.867 100.002,161.867C120.516,161.867 137.96,147.75 143.539,132.088C150.068,113.754 158.901,78.061 158.913,78.007L158.918,78.007C160.201,73.01 160.879,67.77 160.87,62.366C160.819,28.343 133.623,0.813 100.002,0.867Z" style="fill:none;fill-rule:nonzero;stroke:rgb(194,123,85);stroke-width:1.5px;"/>
                    </g>
                </g>
                <g id="svga-group-mouth-single" transform="matrix(1,0,0,1,1,0)">
                    <path id="SvgjsPath4400" d="M100.34,141.925C98.814,141.925 97.342,141.732 96.44,141.378C96.183,141.276 96.056,140.986 96.157,140.73C96.258,140.473 96.547,140.347 96.805,140.447C98.469,141.1 102.66,141.123 104.509,140.254C104.76,140.137 105.057,140.244 105.174,140.493C105.292,140.743 105.185,141.041 104.935,141.158C103.815,141.684 102.044,141.925 100.34,141.925ZM115.025,133.444C115.423,133.273 115.609,132.812 115.438,132.413C115.267,132.014 114.803,131.83 114.407,132C102.741,136.992 85.665,132.338 85.495,132.292C85.078,132.176 84.643,132.419 84.527,132.838C84.411,133.256 84.655,133.689 85.073,133.806C85.536,133.934 92.765,135.906 101.107,135.906C105.727,135.905 110.685,135.301 115.025,133.444Z" style="fill:rgb(194,123,85);fill-rule:nonzero;"/>
                </g>
                <g id="svga-group-eyes-left">
                    <g id="svga-group-eyesback-left">
                        <path id="SvgjsPath4584" d="M60.942,83.152C60.726,85.912 62.624,89.19 73.434,90.116C82.987,90.934 87.054,89.358 87.337,86.214C87.62,83.07 83.93,79.227 74.457,78.732C66.026,78.292 61.188,80.005 60.942,83.152Z" style="fill:url(#_Radial2);fill-rule:nonzero;"/>
                    </g>
                    <g id="svga-group-eyesiriswrapper-left" transform="matrix(1,0,0,1,0.5,0.25)">
                        <g id="svga-group-eyesiriscontrol-left">
                            <g id="svga-group-eyesiris-left">
                                <path id="SvgjsPath4642" d="M79.788,85.588C78.919,88.78 75.626,90.661 72.427,89.784C69.23,88.908 67.343,85.606 68.213,82.413C69.082,79.218 72.381,77.337 75.578,78.215C78.772,79.09 80.659,82.392 79.788,85.588Z" style="fill:rgb(77,54,35);fill-rule:nonzero;stroke:rgb(31,17,5);stroke-width:0.5px;"/>
                                <path id="SvgjsPath4643" d="M78.855,85.662C78.006,88.114 75.448,89.543 72.956,88.861C70.656,88.23 69.204,86.023 69.393,83.69C70.246,83.623 71.18,83.603 72.149,83.65C72.139,83.683 72.122,83.712 72.113,83.746C71.807,84.871 72.52,86.051 73.705,86.376C74.894,86.702 76.106,86.05 76.412,84.925C76.451,84.778 76.472,84.631 76.477,84.486C77.29,84.782 78.088,85.165 78.855,85.662Z" style="fill:rgb(92,70,51);fill-rule:nonzero;"/>
                                <path id="SvgjsPath4644" d="M74.813,82.21C73.61,81.866 72.384,82.552 72.074,83.75C71.763,84.941 72.486,86.188 73.688,86.533C74.892,86.878 76.118,86.191 76.429,84.999C76.742,83.801 76.016,82.555 74.813,82.21ZM75.075,86.442C74.575,86.598 74.058,86.391 73.921,85.98C73.788,85.569 74.084,85.113 74.588,84.961C75.091,84.805 75.607,85.012 75.745,85.42C75.881,85.831 75.582,86.287 75.075,86.442Z" style="fill-opacity:0.9;fill-rule:nonzero;"/>
                                <path id="SvgjsPath4645" d="M70.811,87.159C70.441,87.381 69.889,87.182 69.573,86.712C69.257,86.246 69.304,85.688 69.675,85.465C70.043,85.246 70.6,85.444 70.914,85.911C71.226,86.378 71.181,86.938 70.811,87.159Z" style="fill:white;fill-opacity:0.6;fill-rule:nonzero;"/>
                                <path id="SvgjsPath4646" d="M78.71,83.74C77.864,84.247 76.593,83.791 75.873,82.72C75.153,81.648 75.261,80.368 76.107,79.863C76.951,79.354 78.225,79.81 78.941,80.882C79.66,81.954 79.556,83.232 78.71,83.74Z" style="fill:white;fill-opacity:0.8;fill-rule:nonzero;"/>
                            </g>
                        </g>
                    </g>
                    <g id="svga-group-eyesfront-left">
                        <path id="SvgjsPath4609" d="M55.772,86.694C56.975,100.448 66.425,110.857 76.878,109.943C87.331,109.028 94.83,97.136 93.627,83.382C92.424,69.628 82.974,59.218 72.521,60.133C62.067,61.048 54.569,72.94 55.772,86.694ZM60.942,83.152C61.188,80.006 66.026,78.292 74.458,78.733C83.931,79.228 87.621,83.071 87.338,86.215C87.055,89.359 82.987,90.935 73.435,90.117C62.624,89.19 60.726,85.912 60.942,83.152Z" style="fill:rgb(240,199,177);fill-rule:nonzero;"/>
                        <path id="SvgjsPath4610" d="M57.798,85.194C58.394,92.905 68.061,98.532 77.68,97.652C87.296,96.767 95.215,90.93 94.514,83.227C93.817,75.528 85.461,70.003 75.841,70.885C66.221,71.771 56.98,74.647 57.798,85.194ZM60.942,83.152C61.188,80.006 66.026,78.292 74.458,78.733C83.931,79.228 87.621,83.071 87.338,86.215C87.055,89.359 82.987,90.935 73.435,90.117C62.624,89.19 60.726,85.912 60.942,83.152Z" style="fill:url(#_Radial3);fill-rule:nonzero;"/>
                        <path id="SvgjsPath4615" d="M60.942,83.152C60.726,85.912 62.624,89.19 73.434,90.116C82.987,90.934 87.054,89.358 87.337,86.214C87.62,83.07 83.93,79.227 74.457,78.732C66.026,78.292 61.188,80.005 60.942,83.152Z" style="fill:url(#_Radial4);fill-rule:nonzero;"/>
                        <path id="SvgjsPath4619" d="M85.569,79.486C84.544,78.813 82.284,77.884 82.284,77.884C82.284,77.884 84.855,78.472 85.874,79.163C86.893,79.854 87.956,81.529 87.956,81.529C87.956,81.529 86.594,80.159 85.569,79.486ZM67.02,77.131C67.02,77.131 64.363,77.097 62.474,78.267C60.74,79.341 60.026,80.952 60.026,80.952C60.026,80.952 61.675,79.227 62.839,78.451C63.927,77.725 67.02,77.131 67.02,77.131Z" style="fill:rgb(194,123,85);fill-rule:nonzero;"/>
                        <path id="SvgjsPath4620" d="M74.758,78.929C68.602,78.713 59.145,79.305 61.349,85.138C58.146,83.204 60.608,76.328 75.341,77.555C82.478,78.149 90.964,81.83 87.026,87.319C88.273,81.582 80.8,79.142 74.758,78.929ZM85.623,89.012L82.602,89.968C77.308,90.053 74.351,89.688 69.406,89.464C67.127,89.36 65.078,88.238 62.41,86.997C63.947,88.695 66.504,90.058 69.353,90.223C74.142,90.501 77.385,90.565 82.761,90.605L85.623,89.012Z" style="fill:rgb(88,35,17);fill-rule:nonzero;"/>
                    </g>
                </g>
                <g id="svga-group-eyes-right">
                    <g id="svga-group-eyesback-right">
                        <path id="SvgjsPath4592" d="M139.059,83.152C139.275,85.912 137.377,89.19 126.567,90.116C117.014,90.934 112.947,89.358 112.664,86.214C112.381,83.07 116.071,79.227 125.544,78.732C133.975,78.292 138.813,80.005 139.059,83.152Z" style="fill:url(#_Radial5);fill-rule:nonzero;"/>
                    </g>
                    <g id="svga-group-eyesiriswrapper-right" transform="matrix(1,0,0,1,-0.5,0.25)">
                        <g id="svga-group-eyesiriscontrol-right">
                            <g id="svga-group-eyesiris-right">
                                <path id="SvgjsPath4647" d="M131.788,85.588C130.919,88.78 127.626,90.661 124.426,89.784C121.23,88.908 119.342,85.606 120.212,82.413C121.081,79.218 124.381,77.337 127.577,78.215C130.772,79.09 132.658,82.392 131.788,85.588Z" style="fill:rgb(77,54,35);fill-rule:nonzero;stroke:rgb(31,17,5);stroke-width:0.5px;"/>
                                <path id="SvgjsPath4648" d="M130.855,85.662C130.006,88.114 127.447,89.543 124.956,88.861C122.656,88.23 121.203,86.023 121.393,83.69C122.247,83.623 123.18,83.603 124.149,83.65C124.139,83.683 124.122,83.712 124.113,83.746C123.807,84.871 124.52,86.051 125.706,86.376C126.895,86.702 128.107,86.05 128.413,84.925C128.451,84.778 128.473,84.631 128.478,84.486C129.29,84.782 130.089,85.165 130.855,85.662Z" style="fill:rgb(92,70,51);fill-rule:nonzero;"/>
                                <path id="SvgjsPath4649" d="M126.813,82.21C125.611,81.866 124.384,82.552 124.075,83.75C123.763,84.941 124.487,86.188 125.688,86.533C126.892,86.878 128.119,86.191 128.43,84.999C128.741,83.801 128.016,82.555 126.813,82.21ZM127.075,86.442C126.575,86.598 126.057,86.391 125.921,85.98C125.788,85.569 126.084,85.113 126.588,84.961C127.091,84.805 127.607,85.012 127.745,85.42C127.881,85.831 127.582,86.287 127.075,86.442Z" style="fill-opacity:0.9;fill-rule:nonzero;"/>
                                <path id="SvgjsPath4650" d="M122.812,87.159C122.442,87.381 121.889,87.182 121.574,86.712C121.258,86.246 121.304,85.688 121.676,85.465C122.043,85.246 122.602,85.444 122.915,85.911C123.227,86.378 123.181,86.938 122.812,87.159Z" style="fill:white;fill-opacity:0.6;fill-rule:nonzero;"/>
                                <path id="SvgjsPath4651" d="M130.71,83.74C129.864,84.247 128.594,83.791 127.873,82.72C127.153,81.648 127.261,80.368 128.107,79.863C128.952,79.354 130.224,79.81 130.941,80.882C131.66,81.954 131.557,83.232 130.71,83.74Z" style="fill:white;fill-opacity:0.8;fill-rule:nonzero;"/>
                            </g>
                        </g>
                    </g>
                    <g id="svga-group-eyesfront-right">
                        <path id="SvgjsPath4630" d="M127.479,60.133C117.026,59.218 107.576,69.628 106.373,83.382C105.17,97.136 112.669,109.028 123.122,109.943C133.575,110.857 143.025,100.448 144.228,86.694C145.432,72.94 137.934,61.048 127.479,60.133ZM126.566,90.116C117.013,90.934 112.946,89.358 112.663,86.214C112.38,83.07 116.07,79.227 125.543,78.732C133.975,78.292 138.813,80.005 139.059,83.151C139.274,85.912 137.377,89.19 126.566,90.116Z" style="fill:rgb(240,199,177);fill-rule:nonzero;"/>
                        <path id="SvgjsPath4631" d="M124.159,70.885C114.539,70.003 106.183,75.528 105.486,83.227C104.785,90.93 112.704,96.767 122.32,97.652C131.939,98.532 141.606,92.905 142.202,85.194C143.021,74.647 133.779,71.771 124.159,70.885ZM126.566,90.116C117.013,90.934 112.946,89.358 112.663,86.214C112.38,83.07 116.07,79.227 125.543,78.732C133.975,78.292 138.813,80.005 139.059,83.151C139.274,85.912 137.377,89.19 126.566,90.116Z" style="fill:url(#_Radial6);fill-rule:nonzero;"/>
                        <path id="SvgjsPath4636" d="M139.059,83.152C139.275,85.912 137.377,89.19 126.567,90.116C117.014,90.934 112.947,89.358 112.664,86.214C112.381,83.07 116.071,79.227 125.544,78.732C133.975,78.292 138.813,80.005 139.059,83.152Z" style="fill:url(#_Radial7);fill-rule:nonzero;"/>
                        <path id="SvgjsPath4640" d="M112.045,81.529C112.045,81.529 113.108,79.854 114.127,79.163C115.146,78.472 117.717,77.884 117.717,77.884C117.717,77.884 115.457,78.813 114.432,79.486C113.407,80.159 112.045,81.529 112.045,81.529ZM137.161,78.451C138.325,79.227 139.974,80.952 139.974,80.952C139.974,80.952 139.26,79.342 137.526,78.267C135.637,77.098 132.98,77.131 132.98,77.131C132.98,77.131 136.073,77.725 137.161,78.451Z" style="fill:rgb(194,123,85);fill-rule:nonzero;"/>
                        <path id="SvgjsPath4641" d="M112.975,87.32C109.037,81.831 117.523,78.15 124.66,77.556C139.393,76.329 141.855,83.204 138.652,85.139C140.856,79.306 131.399,78.714 125.243,78.93C119.2,79.142 111.728,81.582 112.975,87.32ZM117.239,90.604C122.615,90.564 125.858,90.5 130.647,90.222C133.497,90.057 136.053,88.694 137.59,86.996C134.922,88.237 132.873,89.359 130.594,89.463C125.649,89.688 122.692,90.052 117.398,89.967L114.377,89.011L117.239,90.604Z" style="fill:rgb(88,35,17);fill-rule:nonzero;"/>
                    </g>
                </g>
                <g id="svga-group-facehighlight-single">
                    <path id="SvgjsPath2885" d="M141,113.974C141.035,136.596 122.708,154.968 100.062,154.999C77.42,155.036 59.034,136.726 58.999,114.099C58.964,91.479 77.291,73.035 99.936,72.999C122.579,72.964 140.967,91.349 141,113.974Z" style="fill:url(#_Radial8);fill-rule:nonzero;"/>
                    <path id="SvgjsPath2889" d="M137.5,53.999C137.5,74.71 120.711,91.499 100.001,91.499C79.29,91.499 62.5,74.71 62.5,53.999C62.5,33.288 79.29,16.499 100.001,16.499C120.711,16.499 137.5,33.288 137.5,53.999Z" style="fill:url(#_Radial9);fill-rule:nonzero;"/>
                </g>
                <g id="svga-group-eyebrows-left" transform="matrix(1.05,1.8326e-09,-1.8326e-09,1.05,-5.66002,-3.50855)">
                    <path id="SvgjsPath4668" d="M52.488,73.87C59.963,64.487 72.826,66.048 83.366,67.556C86.047,67.94 88.807,68.228 91.436,68.892C93.32,69.367 94.801,71.514 93.287,73.248C92.579,74.073 91.034,73.92 90.08,73.9C77.459,73.645 63.193,66.387 52.488,73.87Z" style="fill:rgb(59,49,40);fill-rule:nonzero;"/>
                </g>
                <g id="svga-group-eyebrows-right" transform="matrix(1.05,1.8326e-09,-1.8326e-09,1.05,-4.34187,-3.5164)">
                    <path id="SvgjsPath4669" d="M147.577,73.49C145.413,72.042 143.123,71.02 140.534,70.601C131.037,69.061 112.948,75.391 108.193,74.051C105.281,73.229 105.87,70.312 107.158,69.593C107.933,69.16 108.148,69.171 115.067,67.981C126.824,65.961 139.988,64.355 147.577,73.49Z" style="fill:rgb(59,49,40);fill-rule:nonzero;"/>
                </g>
                <g id="svga-group-nose-single">
                    <path id="SvgjsPath4421" d="M96.831,88.524C96.831,88.524 95.432,99.641 94.805,101.805C93.426,106.557 88.637,113.222 89.566,116.234C91.425,122.256 97.103,120.727 100.09,120.705C102.853,120.683 108.162,122.257 109.252,118.335C109.604,117.069 108.811,113.869 108.811,113.869C108.811,113.869 106.167,116.981 99.936,116.636C98.158,116.537 95.265,114.54 95.232,111.724C95.189,107.907 97.034,104.689 97.437,100.9C97.741,98.022 96.831,88.524 96.831,88.524Z" style="fill:rgb(225,172,143);fill-rule:nonzero;"/>
                    <path id="SvgjsPath4422" d="M105.194,118.969C106.269,118.969 106.56,119.295 106.56,119.698C106.56,120.102 106.225,120.724 105.194,120.428C104.06,120.105 102.081,120.253 102.081,120.253C102.081,120.253 104.117,118.969 105.194,118.969ZM94.922,118.969C93.845,118.97 93.556,119.297 93.556,119.702C93.555,120.105 93.879,120.685 94.922,120.431C96.072,120.149 98.034,120.256 98.034,120.256C98.034,120.256 95.999,118.973 94.922,118.969ZM108.81,113.869C108.81,113.869 110.299,115.802 109.99,117.844C109.689,119.827 106.68,120.705 106.68,120.705C106.68,120.705 108.769,119.189 109.022,117.349C109.14,116.486 108.81,113.869 108.81,113.869ZM90.427,111.883C90.427,111.883 89.341,114.587 89.655,116.235C90.226,119.211 93.359,120.399 93.359,120.399C93.359,120.399 91.404,118.36 90.709,116.557C89.948,114.587 90.427,111.883 90.427,111.883Z" style="fill:rgb(194,123,85);fill-rule:nonzero;"/>
                    <path id="SvgjsPath4423" d="M105.141,115.311C106.184,114.422 106.289,113.915 106.073,113.582C105.858,113.248 105.232,113.037 104.359,114.11C103.396,115.29 101.303,116.164 101.303,116.164C101.303,116.164 104.098,116.198 105.141,115.311Z" style="fill:rgb(255,228,214);fill-rule:nonzero;"/>
                </g>
                <g id="svga-group-beardwrap">
                </g>
                <g id="svga-group-hair-front">
                    <path id="SvgjsPath4774" d="M150.81,99.442C150.602,99.442 150.383,99.432 150.159,99.413C148.187,93.017 150.49,83.927 154.409,78.462C151.735,71.052 156.903,74.905 156.044,66.069C155.889,64.799 156.096,63.657 156.523,62.485C155.254,59.172 154.904,55.296 155.325,53.166C151.696,43.595 150.427,50.111 148.495,38.272C145.535,37.201 140.124,33.103 137.828,31.313C131.871,26.665 122.949,41.141 115.495,36.272C111.053,40.304 102.69,39.583 99.974,38.681C96.145,40.609 88.461,39.616 84.468,36.27C78.054,40.878 75.095,29.389 64.268,29.691C57.461,34.601 59.314,35.395 51.502,38.273C50.804,42.822 51.448,43.552 47.799,47.481C45.645,49.767 45.637,50.561 44.767,52.875L44.611,52.875L44.664,53.146L44.626,53.245L44.697,53.319C45.171,55.905 44.307,59.903 43.47,62.503C45.087,66.987 42.089,68.253 45.412,72.777C46.485,74.238 46.882,74.801 45.581,78.463C50.298,85.043 51.631,95.339 49.846,99.416C42.722,100.103 43.125,90.214 42.542,86.76C41.177,77.065 30.844,84.137 32.602,74.982C29.961,72.891 30.634,70.228 31.529,66.082C29.077,60.921 24.281,42.426 32.21,38.032C31.652,31.049 35.051,24.093 40.801,21.122C41.657,14.496 49.942,4.247 56.45,5.599C57.944,-2.314 72.157,-12.265 78.41,-7.828C83.288,-12.478 93.413,-14.054 99.981,-12.127C107.202,-14.01 116.165,-12.601 121.586,-7.836C128.021,-12.244 141.935,-2.187 143.538,5.569C150.651,4.896 157.949,13.905 159.207,21.136C165.141,24.193 168.283,31.159 167.781,38.033C175.257,42.168 171.572,58.971 168.475,66.074C169.164,69.674 170.232,72.729 167.396,74.983C169.293,84.584 158.443,75.917 157.225,88.705C156.838,92.721 156.198,99.442 150.81,99.442Z" style="fill:rgb(59,49,40);fill-rule:nonzero;"/>
                    <path id="SvgjsPath4775" d="M160.293,77.838C159.461,77.908 158.629,76.537 157.797,76.537C157.797,71.436 160.839,68.374 163.881,65.314C162.867,65.314 161.854,63.273 160.839,64.293C157.797,59.191 162.867,54.09 164.896,50.008C158.811,51.029 153.742,43.887 157.797,38.785C158.501,38.785 159.205,37.803 159.909,37.543C156.317,36.721 153.582,36.425 151.713,32.663C150.699,29.602 151.713,26.541 153.741,23.481C147.657,27.563 139.545,25.522 135.49,19.4L135.49,15.318C133.461,20.42 128.391,24.5 122.307,22.46C120.661,22.46 117.677,21.115 116.613,18.423C116.794,20.978 116.004,23.481 115.209,23.481C109.125,26.541 101.014,22.46 100,15.318C100,19.4 97.972,24.5 95.944,25.521C90.874,28.582 84.79,22.459 86.818,15.318C84.79,22.46 78.706,25.521 72.622,23.481C69.58,22.46 65.524,20.42 65.524,15.318C62.482,22.46 54.37,29.602 49.3,20.42C52.342,28.582 46.723,37.765 41.056,37.765C45.071,43.256 42.203,55.11 35.105,55.11C43.216,57.151 39.161,66.333 40.174,72.455C39.269,72.455 38.363,74.078 37.457,73.698C45.934,79.057 47.865,89.528 49.52,99.431C49.627,99.426 49.731,99.425 49.843,99.415C51.628,95.338 50.295,85.041 45.578,78.462C46.879,74.8 46.482,74.237 45.409,72.776C42.086,68.252 45.084,66.986 43.467,62.502C44.304,59.903 45.168,55.904 44.694,53.318L44.623,53.244L44.661,53.145L44.608,52.874L44.764,52.874C45.634,50.56 45.642,49.766 47.796,47.48C51.445,43.55 50.801,42.82 51.499,38.272C59.312,35.394 57.458,34.6 64.265,29.69C75.092,29.388 78.051,40.877 84.465,36.269C88.458,39.615 96.142,40.607 99.971,38.68C102.688,39.582 111.05,40.303 115.492,36.271C122.946,41.14 131.868,26.664 137.825,31.312C140.121,33.102 145.532,37.2 148.492,38.271C150.424,50.11 151.693,43.594 155.322,53.165C154.901,55.295 155.252,59.172 156.52,62.484C156.093,63.656 155.886,64.798 156.041,66.068C156.9,74.904 151.732,71.051 154.406,78.461C150.711,83.615 148.456,91.987 149.863,98.29C148.86,90.198 152.749,81.539 160.293,77.838Z" style="fill:rgb(44,34,25);fill-rule:nonzero;"/>
                    <path id="SvgjsPath4776" d="M132.061,10.84C133.78,9.816 140.979,10.294 142.456,5.228C142.833,11.226 136.312,11.595 132.061,10.84ZM148.412,10.075C151.382,11.026 153.225,16.3 153.482,17.599C154.263,14.153 152.04,9.675 148.412,10.075ZM149.553,16.707C150.99,18.004 150.524,21.808 150.06,22.829C151.689,21.296 151.909,17.608 149.553,16.707ZM147.398,17.982C147.509,20.722 147.203,22.63 145.75,24.614C148.398,23.297 148.441,20.748 147.398,17.982ZM155.383,23.339C156.171,22.826 160.968,22.924 161.467,24.105C161.489,21.83 156.615,21.84 155.383,23.339ZM153.482,28.058C157.501,27.975 156.937,26.858 161.086,27.165C158.206,25.239 155.729,27.129 153.482,28.058ZM158.806,29.716C157.948,30.736 155.977,31.336 155.891,33.924C157.111,31.625 157.822,31.719 158.806,29.716ZM162.861,36.093C166.117,37.731 167.118,39.848 167.931,43.363C168.833,39.356 167.064,36.289 162.861,36.093ZM164.129,40.684C165.951,42.499 166.061,46.31 165.016,48.719C167.424,46.734 167.503,42.097 164.129,40.684ZM162.607,43.618C162.233,45.477 161.428,46.306 160.453,48.464C162.014,47.274 162.925,45.685 162.607,43.618ZM163.621,55.606C164.674,58.821 165.539,59.959 164.256,62.111C166.854,60.487 165.595,57.942 163.621,55.606ZM162.101,56.755C162.051,58.659 161.825,60.134 160.707,62.494C162.271,61.371 163.026,59.411 162.101,56.755ZM127.752,13.263C128.262,15.755 132.29,16.442 132.29,16.442C133.33,16.686 134.832,16.626 135.737,15.942C134.647,16.127 128.78,14.629 127.752,13.263ZM122.809,8.8C124.345,5.874 127.735,3.973 130.92,3.443C126.71,2.296 123.261,4.881 122.809,8.8ZM120.4,-3.827C122.342,-2.044 122.36,0.946 122.427,4.845C123.975,1.994 123.902,-2.445 120.4,-3.827ZM121.414,-5.485C122.953,-5.186 125.393,-0.784 125.598,0.255C126.17,-2.325 123.604,-5.916 121.414,-5.485ZM118.879,-1.786C119.197,1.353 118.909,3.694 117.233,6.376C120.269,4.559 120.521,1.362 118.879,-1.786ZM115.711,7.652C110.629,8.573 108.55,15.547 110.261,20.151C110.482,18.128 112.168,10.188 115.711,7.652ZM110.641,3.825C101.191,7.234 101.926,17.853 105.571,20.278C104.695,18.888 103.081,10.255 110.641,3.825ZM99.614,4.081C94.573,11.657 100.407,16.825 102.532,20.747C101.128,15.722 97.8,10.264 99.614,4.081ZM107.473,-2.806C105.995,-2.605 101.536,-3.747 101.135,-0.256C102.744,-2.686 105.359,-1.298 107.473,-2.806ZM110.768,-4.464C106.506,-8.83 105.016,-6.92 104.303,-6.378C106.896,-7.17 108.012,-5.867 110.768,-4.464ZM108.613,-9.821C111.676,-9.789 114.014,-7.56 114.824,-4.592C115.605,-8.087 112.316,-11.478 108.613,-9.821ZM78.193,-0.639C81.896,-3.932 86.174,-7.268 90.614,-5.741C86.39,-9.9 80.756,-5.989 78.193,-0.639ZM83.137,-0.128C75.872,6.22 81.949,12.035 84.278,11.733C83.263,11.249 79.169,7.446 83.137,-0.128ZM85.291,4.335C86.354,5.189 87.047,6.034 87.319,9.181C88.166,7.073 87.671,5.06 85.291,4.335ZM92.896,-0.639C92.999,-0.258 94.454,4.696 94.063,4.696C93.935,6.039 93.665,6.611 93.023,7.779C97.603,5.28 93.521,0.39 92.896,-0.639ZM92.263,-3.699C97.076,-4.172 97.225,2.062 96.952,3.825C99.773,-0.397 96.927,-6.515 92.263,-3.699ZM80.221,13.901C82.447,14.496 81.203,17.147 81.489,20.916C82.734,18.018 83.297,13.608 80.221,13.901ZM75.166,9.612C73.108,1.274 66.533,2.678 66.533,2.678C67.853,2.311 72.804,6.39 73.563,12.1C73.782,13.234 74.007,15.179 74.264,16.707C74.584,15.687 75.839,11.99 75.166,9.612ZM68.307,8.162C70.627,9.962 69.288,15.208 68.307,17.983C71.302,15.007 72.167,9.307 68.307,8.162ZM64.505,9.437C65.954,11.339 62.802,15.084 60.829,17.6C64.029,16.283 67.604,11.589 64.505,9.437ZM69.194,-6.25C66.353,-6.715 63.623,-2.939 64.378,-0.128C64.731,-1.832 67.176,-5.672 69.194,-6.25ZM67.8,-2.551C65.521,-2.097 65.609,1.379 66.659,2.805C66.538,1.785 66.504,-2.082 67.8,-2.551ZM53.351,11.478C49.34,9.692 45.476,11.395 44.859,15.433C46.927,12.637 49.917,11.543 53.351,11.478ZM51.069,15.049C48.314,13.33 44.809,16.776 45.492,19.896C45.919,17.705 48.8,14.798 51.069,15.049ZM49.422,18.365C46.022,18.672 45.455,23.628 47.521,25.252C46.738,23.542 47.416,19.313 49.422,18.365ZM40.93,23.722C43.126,24.734 45.482,26.698 45.207,26.698C45.999,27.838 46.166,28.257 46.506,29.589C47.386,25.745 44.818,24.23 40.93,23.722ZM42.704,28.186C44.63,29.674 46.121,32.412 44.859,35.201C47.482,33.076 46.363,29.374 42.704,28.186ZM40.485,29.368C40.313,29.197 40.162,29.213 40.168,29.206C40.723,29.282 40.44,32.679 39.144,33.682C38.731,34.137 37.354,35.487 36.873,35.966C42.358,34.09 41.5,30.358 40.485,29.368ZM38.268,38.771C39.826,40.699 40.048,43.75 39.714,44.085C39.405,46.318 39.587,45.331 39.156,47.699C41.32,45.208 42.168,41.147 38.268,38.771ZM36.367,42.47C37.552,43.457 37.306,47.711 35.606,48.592C38.497,48.388 38.726,43.236 36.367,42.47ZM32.691,42.98C34.044,44.607 33.096,45.464 28.889,50.25C33.319,48.206 35.744,44.46 32.691,42.98ZM32.691,55.097C35.139,56.933 33.327,61.305 32.31,62.366C35.531,60.846 36.123,55.928 32.691,55.097ZM36.747,59.178C38.281,59.618 35.971,63.238 35.099,64.279C37.811,62.885 39.197,59.095 36.747,59.178ZM79.428,17.256C79.686,20.037 77.061,22.693 76.546,23.212C80.154,22.118 80.116,18.763 79.428,17.256ZM120.893,18.134C120.893,18.134 119.887,16.82 119.133,15.729C119.618,18.586 121.307,20.984 124.203,21.511C123.805,21.214 120.893,18.54 120.893,18.134ZM121.837,15.049C122.214,17.117 123.744,18.667 125.894,18.791C124.583,18.038 123.274,16.978 121.837,15.049ZM166.453,68.786C165.614,70.596 163.866,71.658 162.734,73.547C166.084,71.548 166.283,70.411 166.453,68.786ZM165.438,73.887C164.424,74.411 162.761,74.92 161.043,76.949C163.563,76.018 164.425,74.814 165.438,73.887ZM32.944,68.105C33.726,69.406 34.793,70.459 35.986,71.167C35.235,69.891 34.186,68.863 32.944,68.105ZM33.283,71.846C34.539,76.008 36.662,75.588 36.662,75.588C35.529,74.953 33.666,72.606 33.283,71.846Z" style="fill:rgb(74,66,58);fill-rule:nonzero;"/>
                    <path id="SvgjsPath4777" d="M168.08,37.856C168.519,31.814 165.853,24.222 159.461,20.929C158.219,13.928 150.793,4.564 143.762,5.237C142.211,-2.338 127.994,-12.621 121.597,-8.221C116.922,-12.333 108.118,-14.545 99.973,-12.445C93.038,-14.457 82.881,-12.518 78.37,-8.221C72.206,-12.603 57.652,-2.455 56.203,5.237C49.932,3.945 41.37,14.301 40.515,20.92C35.086,23.716 31.321,30.703 31.888,37.857C23.829,42.308 28.901,61.245 31.204,66.12C30.967,67.237 30.313,70.025 30.442,71.232C30.453,71.691 30.471,71.997 30.481,71.997C30.775,73.017 30.846,73.985 32.264,75.108C30.497,84.321 40.912,77.405 42.24,86.812C42.908,90.776 42.384,94.861 45.141,97.964C46.532,99.483 49.045,99.867 50.035,99.698C51.968,95.615 50.595,85.002 45.903,78.413C47.556,73.739 46.303,73.889 44.686,71.189C43.18,68.676 45.047,66.036 43.775,62.497C45.182,58.148 45.271,54.726 44.964,53.181C44.974,53.181 44.974,53.181 44.964,53.171C45.904,50.709 45.844,49.984 48.004,47.692C51.723,43.687 51.101,42.81 51.759,38.5C58.977,36.718 57.166,34.692 64.281,30.722C70.101,27.474 77.962,41.311 84.444,36.653C85.875,37.85 86.953,38.361 88.565,39C89.289,39.221 89.155,39.26 90.387,39.469C90.655,39.5 96.617,39.848 96.617,39.571C97.205,39.511 99.436,39.286 99.985,39.01C100.918,39.321 102.418,39.475 103.354,39.571C103.354,39.581 104.976,39.683 106.583,39.683C110.222,39.825 113.532,38.444 115.515,36.653C123.15,41.628 132.234,27.062 138.588,32.623C144.551,37.842 146.524,37.883 148.223,38.5C148.277,38.83 148.482,40.977 148.609,41.796C149.703,47.244 152.321,46.085 155.007,53.192C154.804,54.214 154.546,58.156 156.196,62.488C155.829,63.508 155.569,64.713 155.738,66.099C156.58,74.735 151.405,71.059 154.065,78.413C150.5,83.388 147.694,92.732 149.916,99.656C149.926,99.667 149.926,99.687 149.934,99.698C157.546,100.567 157.173,90.103 157.729,86.811C159.046,77.481 169.489,84.25 167.714,75.107C169.153,73.96 169.222,73.016 169.486,71.996C169.497,71.996 169.518,71.69 169.528,71.241C169.663,69.956 168.967,67.13 168.773,66.109C169.89,63.544 176.97,42.763 168.08,37.856ZM168.662,64.64C168.596,65.012 168.396,65.789 168.179,66.385C168.254,66.824 169.244,71.905 168.813,71.905C168.5,72.926 168.707,73.477 167.296,74.823C168.692,83.383 157.826,75.833 156.253,86.538C155.321,92.238 156.322,98.085 150.358,99.055C149.166,93.316 151.791,83.548 154.648,78.578C152.378,71.736 157.571,74.998 156.697,66.008C156.538,64.662 156.676,63.724 156.966,62.702C156.227,60.537 155.445,56.618 155.728,53.938C153.344,45.911 155.118,50.671 150.844,44.826C150.826,44.795 150.395,44.041 150.379,44.01L150.369,43.999C149.312,41.736 149.604,40.599 149.012,38.102C149.01,38.102 143.461,35.536 138.526,31.344C132.387,26.133 123.032,40.138 115.297,36.153C111.302,39.239 103.382,39.028 99.984,38.153C98.083,38.589 92.763,38.948 89.584,38.296C89.503,38.279 88.146,37.878 88.078,37.857C86.976,37.521 85.616,36.778 84.651,36.153C77.688,40.212 70.222,24.226 62.703,30.347C58.305,33.928 56.105,36.57 50.964,38.102C50.568,39.122 50.738,41.65 49.597,43.999L49.597,44.01C49.597,44.01 49.378,44.777 47.29,46.979C44.683,49.815 45.003,51.591 44.239,53.947C44.521,56.639 43.77,60.108 43.01,62.712C44.041,66.42 41.803,69.247 44.446,72.598C46.597,75.391 45.885,75.639 45.329,78.587C47.876,83.064 50.913,92.781 49.608,99.065C39.322,97.435 49.592,81.856 36.721,79.719C34.79,79.419 33.429,79.386 32.898,77.883C32.588,76.988 32.58,75.355 32.669,74.821C31.282,73.392 31.453,72.924 31.165,71.903C30.661,71.903 31.788,66.883 31.788,66.394C31.414,65.373 24.706,42.723 32.53,37.876C32.53,30.867 36.395,24.014 40.941,21.204C40.99,21 41.048,20.796 41.109,20.581C41.109,20.571 41.118,20.561 41.118,20.551C43.059,14.546 50.771,4.97 56.817,5.777C58.23,-0.466 72.814,-11.758 78.677,-7.763C85.385,-11.895 93.411,-12.832 99.973,-11.476C108.404,-13.023 116.581,-11.022 121.287,-7.763C126.93,-11.607 141.053,-1.224 143.148,5.777C149.531,4.926 157.209,15.282 158.856,20.571L158.856,20.581C158.916,20.796 158.977,21 159.035,21.204C164.9,25.243 166.556,30.204 167.414,37.499C167.414,37.616 167.435,37.69 167.435,37.866C174.08,42.33 170.504,55.007 168.662,64.64Z" style="fill:rgb(13,9,5);fill-rule:nonzero;"/>
                </g>
            </g>
        </g>
    </g>
    <defs>
        <linearGradient id="_Linear1" x1="0" y1="0" x2="1" y2="0" gradientUnits="userSpaceOnUse" gradientTransform="matrix(2.69422e-15,-44,44,2.69422e-15,100,172)"><stop offset="0" style="stop-color:rgb(225,172,143);stop-opacity:0.8"/><stop offset="0.7" style="stop-color:rgb(194,123,85);stop-opacity:1"/><stop offset="1" style="stop-color:rgb(194,123,85);stop-opacity:1"/></linearGradient>
        <radialGradient id="_Radial2" cx="0" cy="0" r="1" gradientUnits="userSpaceOnUse" gradientTransform="matrix(-10.213,0,0,10.213,74.139,84.497)"><stop offset="0" style="stop-color:white;stop-opacity:1"/><stop offset="0.54" style="stop-color:rgb(253,254,254);stop-opacity:1"/><stop offset="0.74" style="stop-color:rgb(246,248,249);stop-opacity:1"/><stop offset="0.88" style="stop-color:rgb(234,239,242);stop-opacity:1"/><stop offset="0.99" style="stop-color:rgb(217,227,232);stop-opacity:1"/><stop offset="1" style="stop-color:rgb(216,226,231);stop-opacity:1"/></radialGradient>
        <radialGradient id="_Radial3" cx="0" cy="0" r="1" gradientUnits="userSpaceOnUse" gradientTransform="matrix(17.6805,0.367827,0.293554,-14.1437,76.2434,83.7398)"><stop offset="0" style="stop-color:rgb(225,172,143);stop-opacity:1"/><stop offset="0.7" style="stop-color:rgb(225,172,143);stop-opacity:0.3"/><stop offset="1" style="stop-color:rgb(240,199,177);stop-opacity:0"/></radialGradient>
        <radialGradient id="_Radial4" cx="0" cy="0" r="1" gradientUnits="userSpaceOnUse" gradientTransform="matrix(-22.5857,-12.5195,-9.38961,16.9405,77.367,100.962)"><stop offset="0" style="stop-color:black;stop-opacity:0"/><stop offset="0.94" style="stop-color:black;stop-opacity:0"/><stop offset="1" style="stop-color:black;stop-opacity:0.2"/></radialGradient>
        <radialGradient id="_Radial5" cx="0" cy="0" r="1" gradientUnits="userSpaceOnUse" gradientTransform="matrix(10.213,0,0,10.213,125.861,84.497)"><stop offset="0" style="stop-color:white;stop-opacity:1"/><stop offset="0.54" style="stop-color:rgb(253,254,254);stop-opacity:1"/><stop offset="0.74" style="stop-color:rgb(246,248,249);stop-opacity:1"/><stop offset="0.88" style="stop-color:rgb(234,239,242);stop-opacity:1"/><stop offset="0.99" style="stop-color:rgb(217,227,232);stop-opacity:1"/><stop offset="1" style="stop-color:rgb(216,226,231);stop-opacity:1"/></radialGradient>
        <radialGradient id="_Radial6" cx="0" cy="0" r="1" gradientUnits="userSpaceOnUse" gradientTransform="matrix(-17.6815,0.367848,-0.293571,-14.1445,123.757,83.7398)"><stop offset="0" style="stop-color:rgb(225,172,143);stop-opacity:1"/><stop offset="0.7" style="stop-color:rgb(225,172,143);stop-opacity:0.3"/><stop offset="1" style="stop-color:rgb(240,199,177);stop-opacity:0"/></radialGradient>
        <radialGradient id="_Radial7" cx="0" cy="0" r="1" gradientUnits="userSpaceOnUse" gradientTransform="matrix(22.5857,-12.5195,9.38961,16.9405,122.633,100.962)"><stop offset="0" style="stop-color:black;stop-opacity:0"/><stop offset="0.94" style="stop-color:black;stop-opacity:0"/><stop offset="1" style="stop-color:black;stop-opacity:0.2"/></radialGradient>
        <radialGradient id="_Radial8" cx="0" cy="0" r="1" gradientUnits="userSpaceOnUse" gradientTransform="matrix(41,0,0,41,100,114)"><stop offset="0" style="stop-color:rgb(255,228,214);stop-opacity:0.5"/><stop offset="0.9" style="stop-color:rgb(240,199,177);stop-opacity:0"/><stop offset="1" style="stop-color:rgb(240,199,177);stop-opacity:0"/></radialGradient>
        <radialGradient id="_Radial9" cx="0" cy="0" r="1" gradientUnits="userSpaceOnUse" gradientTransform="matrix(37,0,0,37,100,54)"><stop offset="0" style="stop-color:rgb(255,228,214);stop-opacity:0.5"/><stop offset="0.9" style="stop-color:rgb(240,199,177);stop-opacity:0"/><stop offset="1" style="stop-color:rgb(240,199,177);stop-opacity:0"/></radialGradient>
    </defs>
</svg>
